<?xml version="1.0" encoding="UTF-8"?>
<!DOCTYPE svg PUBLIC "-//W3C//DTD SVG 1.1//EN" "http://www.w3.org/Graphics/SVG/1.1/DTD/svg11.dtd">
<!-- Creator: CorelDRAW 2020 (64-Bit) -->
<svg xmlns="http://www.w3.org/2000/svg" xml:space="preserve" width="210mm" height="297mm" version="1.1" style="shape-rendering:geometricPrecision; text-rendering:geometricPrecision; image-rendering:optimizeQuality; fill-rule:evenodd; clip-rule:evenodd"
viewBox="0 0 21000 29700"
 xmlns:xlink="http://www.w3.org/1999/xlink"
 xmlns:xodm="http://www.corel.com/coreldraw/odm/2003">
 <defs>
  <style type="text/css">
   <![CDATA[
    .fil0 {fill:red;fill-rule:nonzero}
   ]]>
  </style>
 </defs>
 <g id="Слой_x0020_1">
  <metadata id="CorelCorpID_0Corel-Layer"/>
  <path class="fil0" d="M10669.6 15234.04l201.73 -168.58c30.86,-25.78 34.61,-71.28 8.4,-101.61 -26.22,-30.31 -72.46,-34.07 -103.35,-8.25l-154.23 128.89 -154.32 -128.89c-30.91,-25.8 -77.12,-22.08 -103.35,8.27 -26.22,30.35 -22.46,75.85 8.45,101.6l201.8 168.58c13.68,11.45 30.57,17.14 47.42,17.14 16.9,0.01 33.8,-5.69 47.45,-17.15z"/>
  <path class="fil0" d="M10624.73 14963.27c-11.82,0 -23.63,-4.31 -33.22,-12.97l-141.22 -127.48c-21.6,-19.5 -24.23,-53.91 -5.88,-76.85 18.34,-22.96 50.7,-25.77 72.33,-6.26l108 97.49 107.98 -97.49c21.65,-19.49 54.02,-16.7 72.36,6.26 18.34,22.95 15.72,57.36 -5.89,76.85l-141.25 127.47c-9.55,8.67 -21.38,12.98 -33.21,12.98z"/>
  <g id="_897773584">
  </g>
  <g id="_897775600">
  </g>
  <g id="_897766720">
  </g>
  <g id="_897774352">
  </g>
  <g id="_897774256">
  </g>
  <g id="_897780496">
  </g>
  <g id="_897787696">
  </g>
  <g id="_897773920">
  </g>
  <g id="_897773056">
  </g>
  <g id="_897768160">
  </g>
  <g id="_897775696">
  </g>
  <g id="_897784864">
  </g>
  <g id="_897761056">
  </g>
  <g id="_897791488">
  </g>
  <g id="_897783664">
  </g>
 </g>
</svg>
