<?xml version="1.0" encoding="UTF-8"?>
<!DOCTYPE svg PUBLIC "-//W3C//DTD SVG 1.1//EN" "http://www.w3.org/Graphics/SVG/1.1/DTD/svg11.dtd">
<!-- Creator: CorelDRAW 2020 (64-Bit) -->
<svg xmlns="http://www.w3.org/2000/svg" xml:space="preserve" width="7.944mm" height="6.444mm" version="1.1" style="shape-rendering:geometricPrecision; text-rendering:geometricPrecision; image-rendering:optimizeQuality; fill-rule:evenodd; clip-rule:evenodd"
viewBox="0 0 794.4 644.4"
 xmlns:xlink="http://www.w3.org/1999/xlink"
 xmlns:xodm="http://www.corel.com/coreldraw/odm/2003">
 <defs>
  <style type="text/css">
   <![CDATA[
    .fil0 {fill:#FE0000;fill-rule:nonzero}
   ]]>
  </style>
 </defs>
 <g id="Слой_x0020_1">
  <metadata id="CorelCorpID_0Corel-Layer"/>
  <path class="fil0" d="M397.57 294.33c-18.3,0 -36.56,-5.17 -51.4,-15.55l-218.48 -152.93c-33.42,-23.39 -37.48,-64.67 -9.1,-92.19 28.38,-27.54 78.44,-30.91 111.9,-7.51l167.08 116.96 167.07 -116.96c33.49,-23.38 83.56,-20.03 111.93,7.51 28.38,27.53 24.33,68.81 -9.1,92.19l-218.53 152.92c-14.78,10.39 -33.07,15.56 -51.37,15.56zm68.39 342.17l291.28 -181.38c44.56,-27.74 49.98,-76.7 12.14,-109.32 -37.86,-32.62 -104.64,-36.66 -149.23,-8.89l-222.7 138.68 -222.83 -138.68c-44.64,-27.75 -111.36,-23.75 -149.23,8.9 -37.87,32.65 -32.44,81.61 12.2,109.32l291.39 181.38c19.74,12.32 44.13,18.44 68.47,18.44 24.4,0.01 48.8,-6.12 68.51,-18.45z"/>
  <g id="_719096848">
  </g>
  <g id="_719101360">
  </g>
  <g id="_719099056">
  </g>
  <g id="_719099104">
  </g>
  <g id="_725060064">
  </g>
  <g id="_725060256">
  </g>
  <g id="_725060208">
  </g>
  <g id="_725065584">
  </g>
  <g id="_725062608">
  </g>
  <g id="_725062752">
  </g>
  <g id="_725065248">
  </g>
  <g id="_725065200">
  </g>
  <g id="_816445168">
  </g>
  <g id="_816449680">
  </g>
  <g id="_816448480">
  </g>
 </g>
</svg>
